<?xml version="1.0" encoding="UTF-8" standalone="no"?>
<!-- Created with Inkscape (http://www.inkscape.org/) -->

<svg
   width="210mm"
   height="297mm"
   viewBox="0 0 210 297"
   version="1.1"
   id="svg5"
   xml:space="preserve"
   inkscape:version="1.2.2 (732a01da63, 2022-12-09)"
   sodipodi:docname="logo.svg"
   xmlns:inkscape="http://www.inkscape.org/namespaces/inkscape"
   xmlns:sodipodi="http://sodipodi.sourceforge.net/DTD/sodipodi-0.dtd"
   xmlns="http://www.w3.org/2000/svg"
   xmlns:svg="http://www.w3.org/2000/svg"><sodipodi:namedview
     id="namedview7"
     pagecolor="#505050"
     bordercolor="#eeeeee"
     borderopacity="1"
     inkscape:showpageshadow="0"
     inkscape:pageopacity="0"
     inkscape:pagecheckerboard="0"
     inkscape:deskcolor="#505050"
     inkscape:document-units="mm"
     showgrid="false"
     inkscape:zoom="0.25323113"
     inkscape:cx="199.42256"
     inkscape:cy="416.61545"
     inkscape:window-width="1920"
     inkscape:window-height="991"
     inkscape:window-x="-9"
     inkscape:window-y="-9"
     inkscape:window-maximized="1"
     inkscape:current-layer="layer1" /><defs
     id="defs2" /><g
     inkscape:label="Capa 1"
     inkscape:groupmode="layer"
     id="layer1"><path
       style="fill:#ffffff;stroke-width:1.8741"
       d="m 33.563917,299.26226 c -3.900015,-1.74464 -7.05331,-5.86411 -7.05331,-9.2144 0,-1.63703 -0.592984,-3.27713 -1.316053,-3.64407 -2.358087,-1.19441 -10.972077,-23.29484 -10.972077,-28.15037 0,-2.60019 -0.712934,-5.58286 -1.584672,-6.6281 -1.965634,-2.35657 -3.3891354,-15.09932 -5.0390194,-45.1062 -1.179213,-21.44308 -1.707323,-23.9892 -6.98100204,-33.64454 -3.13808996,-5.74502 -5.70549496,-11.21112 -5.70549496,-12.14673 0,-0.93594 -0.630152,-2.00112 -1.398835,-2.36788 -1.884711,-0.89876 -8.9968126,-18.54033 -11.9637656,-29.67695 -2.887886,-10.83978 -3.189277,-40.767106 -0.505134,-50.218716 C -14.399768,62.419419 -9.2935094,53.035908 1.6993456,40.508044 13.96349,26.531173 26.086733,18.64532 35.30959,18.64532 c 3.013072,0 6.834867,-0.827813 8.492861,-1.838591 3.030641,-1.84839 15.579282,0.503446 21.746997,4.074531 1.675902,0.971414 4.244151,1.76544 5.705495,1.76544 1.461346,0 2.657113,0.839638 2.657113,1.86579 0,1.025475 1.381942,2.368391 3.072202,2.982324 1.689583,0.613258 6.431264,4.725971 10.536714,9.13788 4.10562,4.411908 8.726,8.021513 10.26776,8.021513 1.54244,0 4.897608,-2.51385 7.457408,-5.586389 6.9349,-8.32375 16.88622,-16.421118 20.18092,-16.421118 1.5982,0 2.90648,-0.7822 2.90648,-1.737227 0,-1.630285 11.74581,-4.650115 17.55521,-4.513102 7.92438,0.187524 21.06634,2.996685 21.06634,4.504317 0,0.959589 1.14037,1.746012 2.53293,1.746012 1.39377,0 5.2394,1.819839 8.54727,4.044121 l 6.01432,4.044124 1.12854,-8.045503 1.12852,-8.045503 h 20.16789 20.16775 v 19.149524 c 0,13.928554 0.68421,19.928519 2.50793,22.007509 1.82407,2.07883 7.08896,2.858153 19.31087,2.858153 h 16.80293 v 21.793449 c 0,25.391566 0.93255,24.222336 -19.31088,24.222336 -20.089,0 -19.31085,-0.89371 -19.31085,22.18337 0,21.96983 0.60987,20.99858 -14.00088,22.29201 -5.0951,0.45108 -6.73754,1.85954 -9.96212,8.54268 -2.12361,4.40162 -4.71061,9.09024 -5.74875,10.41931 -1.03899,1.32958 -1.88776,3.35466 -1.88776,4.50145 0,1.14711 -0.79064,2.08507 -1.75547,2.08507 -0.96634,0 -1.75546,1.62017 -1.75546,3.60134 0,1.98066 -0.81937,4.53506 -1.82086,5.67626 -1.00182,1.14203 -2.20976,10.09932 -2.68516,19.90689 -1.18427,24.42725 -4.48218,52.75571 -6.2902,54.02936 -0.82105,0.57777 -1.49343,2.78569 -1.49343,4.90572 0,4.36899 -10.86836,28.58795 -14.88106,33.16103 -3.59119,4.09279 -13.02759,5.54888 -19.00591,2.933 -3.53952,-1.54919 -6.12668,-5.26067 -9.21662,-13.22323 -2.36264,-6.08848 -4.29568,-12.79192 -4.29568,-14.89641 0,-2.10434 -0.79063,-4.38252 -1.75565,-5.06267 -0.96464,-0.67916 -1.75547,-3.4341 -1.75547,-6.12009 0,-2.68601 -0.79063,-4.88376 -1.75546,-4.88376 -0.96465,0 -1.75563,-1.72556 -1.75563,-3.83464 0,-2.10906 -0.59298,-4.13466 -1.31607,-4.50143 -0.72476,-0.3666 -2.80375,-4.00139 -4.62141,-8.07693 -1.81763,-4.07537 -4.78018,-9.21458 -6.5833,-11.42029 -1.80311,-2.20569 -3.27831,-4.56242 -3.27831,-5.23718 0,-1.64041 -3.71045,-5.41948 -8.08232,-8.22982 -2.567918,-1.65055 -4.502808,-1.68773 -6.954318,-0.13513 -4.4538,2.82216 -14.46731,15.47336 -15.773226,19.928 -0.564263,1.92559 -1.763074,3.50115 -2.663532,3.50115 -0.900458,0 -1.637044,1.80059 -1.637044,4.00137 0,2.20064 -0.616635,4.00139 -1.370115,4.00139 -0.75348,0 -2.393902,2.9259 -3.644406,6.50222 -6.038647,17.26752 -10.784722,32.75828 -10.784722,35.20083 0,1.48837 -2.453537,5.31929 -5.452249,8.51161 -5.325713,5.66969 -12.469746,7.28779 -19.093774,4.32474 z m 12.964911,-15.02581 c 1.398837,-2.47584 3.086899,-7.88755 3.750503,-12.02628 0.66394,-4.13856 1.907011,-8.01796 2.763208,-8.62091 0.856534,-0.60311 1.555951,-2.76895 1.555951,-4.81349 0,-3.89376 10.091891,-26.76455 16.353204,-37.0607 2.007532,-3.30113 6.561351,-9.37828 10.119428,-13.50468 5.60481,-6.49986 7.54172,-7.50269 14.49316,-7.50269 11.271438,0 14.937128,2.51215 24.368298,16.69935 8.15108,12.26163 20.68689,40.18089 20.68689,46.07306 0,1.65733 0.79064,3.57059 1.75547,4.25075 0.96466,0.67915 1.75547,3.88414 1.75547,7.12039 0,3.23623 0.79065,5.88404 1.75565,5.88404 0.96465,0 1.75547,1.28905 1.75547,2.8661 0,4.282 6.57942,5.92682 9.66075,2.41519 1.44445,-1.64717 2.62787,-3.95947 2.62787,-5.13835 0,-1.17922 0.59637,-2.1437 1.32621,-2.1437 1.89265,0 9.02147,-21.69867 11.27734,-34.32553 1.05082,-5.87952 2.2466,-21.04338 2.6583,-33.69778 0.41222,-12.65439 1.49176,-23.86316 2.39913,-24.90856 0.90722,-1.04575 1.65057,-3.97131 1.65057,-6.50223 0,-2.5309 0.79065,-4.60163 1.75564,-4.60163 0.96466,0 1.75548,-1.07616 1.75548,-2.39322 0,-2.61774 8.57884,-17.72331 11.40607,-20.08376 1.15387,-0.96296 1.1184,-1.47994 -0.10128,-1.50021 -1.02547,-0.0159 -3.59237,-1.86629 -5.70548,-4.10985 -3.42953,-3.64137 -3.84224,-6.11228 -3.84224,-23.00797 v -18.92854 h -15.65615 c -8.61079,0 -16.9058,-0.54737 -18.43303,-1.2147 -2.29695,-1.00518 -2.7769,-4.980566 -2.7769,-23.007796 v -21.79347 h 17.6118 c 16.54125,0 17.69884,-0.266921 19.0404,-4.400756 3.5851,-11.044717 -24.95554,-27.932619 -41.96693,-24.832543 -8.12356,1.479929 -21.0182,7.430388 -21.0182,9.698427 0,0.841329 -0.89539,1.528921 -1.99013,1.528921 -1.95296,0 -10.29226,9.867362 -10.29649,12.183221 -0.004,1.975607 -8.68206,5.823083 -13.134858,5.823083 -2.71928,0 -7.63396,-3.862688 -14.00102,-11.003846 -5.395999,-6.05216 -10.611054,-11.003669 -11.588887,-11.003669 -0.978174,0 -3.579027,-1.344776 -5.780168,-2.988744 -6.056402,-4.522397 -19.243134,-5.901973 -28.765354,-3.009356 -26.5976494,8.079799 -46.589348,38.143281 -46.561978,70.020018 0.01311,12.40384 2.3472736,28.00948 4.1936356,28.00948 0.839639,0 1.52723,1.77339 1.52723,3.94056 0,2.16737 1.47993,6.89401 3.287436,10.50361 8.540501,17.05043 9.967551,19.54316 11.195585,19.55498 0.7247604,0.009 1.3160564,1.81325 1.3160564,4.01405 0,2.20063 0.790645,4.00121 1.75564,4.00121 0.966346,0 1.755471,1.74753 1.755471,3.88329 0,2.13593 0.790647,4.43979 1.755472,5.11996 0.966346,0.67914 1.745505,6.35996 1.733002,12.62229 -0.03379,15.35964 5.582504,64.40406 7.370581,64.40406 0.785577,0 1.429246,2.20317 1.429246,4.89593 0,5.38298 7.641226,23.05258 11.0307,25.50694 3.654543,2.64665 6.346457,1.78 8.987691,-2.89345 z M 217.86326,114.71646 c 0,-23.180636 -1.43771,-21.703246 21.94399,-22.542206 l 14.04428,-0.50345 0.54568,-9.80976 c 0.36154,-6.49344 -0.23145,-10.372327 -1.75565,-11.47333 -1.26537,-0.915657 -9.60889,-1.677575 -18.54014,-1.693971 l -16.23868,-0.03379 V 47.652751 26.645545 H 206.45176 195.04095 V 47.58264 68.519895 l -17.99414,0.571036 -17.99413,0.56932 v 11.003673 11.00383 l 14.04412,0.50346 c 23.38218,0.83795 21.94415,-0.63861 21.94415,22.542026 v 19.96871 h 11.41081 11.41117 z"
       id="path248" /></g></svg>
